<?xml version="1.0" standalone="no"?>
<!DOCTYPE svg PUBLIC "-//W3C//DTD SVG 20010904//EN"
 "http://www.w3.org/TR/2001/REC-SVG-20010904/DTD/svg10.dtd">
<svg version="1.0" xmlns="http://www.w3.org/2000/svg"
 width="106.000000pt" height="140.000000pt" viewBox="0 0 106.000000 140.000000"
 preserveAspectRatio="xMidYMid meet">
<metadata>
Created by potrace 1.10, written by Peter Selinger 2001-2011
</metadata>
<g transform="translate(0.000000,140.000000) scale(0.100000,-0.100000)"
fill="#000000" stroke="none">
<path d="M894 1293 c-121 -84 -165 -159 -146 -246 8 -32 10 -36 11 -15 1 19
23 50 74 105 40 43 82 92 94 108 l23 30 -11 -31 c-5 -17 -41 -66 -80 -109 -58
-65 -95 -129 -83 -143 5 -7 92 58 121 91 45 52 65 111 61 188 l-3 65 -61 -43z
m5 -45 c-15 -28 -99 -118 -110 -118 -14 0 -11 17 6 33 8 8 11 17 8 20 -7 8 12
27 62 60 48 33 49 33 34 5z m15 -100 c-21 -36 -60 -80 -78 -90 l-21 -11 20 24
c30 37 79 89 83 89 2 0 0 -6 -4 -12z"/>
<path d="M300 1307 c1 -38 32 -151 53 -193 26 -49 98 -126 150 -158 44 -27
157 -67 157 -55 0 41 -56 99 -174 178 -69 47 -146 123 -146 144 0 5 17 -9 39
-31 21 -22 84 -68 140 -102 98 -60 142 -102 155 -145 3 -11 4 10 2 47 -6 116
-60 183 -196 245 -41 19 -99 45 -127 59 -36 16 -53 20 -53 11z m90 -58 c144
-54 202 -95 241 -171 18 -36 26 -65 11 -42 -4 7 -52 39 -107 72 -55 34 -114
74 -130 90 -17 16 -41 34 -53 41 -12 6 -22 16 -22 21 0 13 -4 13 60 -11z m85
-189 c128 -90 172 -142 93 -109 -72 29 -142 88 -182 152 -21 34 -21 34 89 -43z"/>
<path d="M979 1026 c-99 -40 -160 -97 -203 -187 -26 -53 -47 -152 -25 -114 40
68 90 99 222 139 48 15 87 31 87 36 0 13 -4 13 -85 -9 -115 -32 -119 -33 -144
-53 -53 -41 -30 21 30 81 46 45 113 84 167 96 18 3 32 13 32 21 0 19 -16 17
-81 -10z"/>
<path d="M355 873 c-172 -62 -280 -199 -292 -371 -10 -138 32 -247 129 -342
126 -123 316 -162 483 -99 46 17 76 38 131 93 84 84 112 145 121 269 l6 80
-29 -5 -29 -4 0 63 c0 68 6 69 30 8 15 -38 15 -38 10 -8 -2 18 -13 51 -24 72
l-19 40 57 12 c77 16 131 38 131 55 0 15 -16 19 -24 5 -3 -4 -42 -17 -86 -27
-44 -10 -80 -21 -80 -26 0 -4 -21 -8 -46 -8 -55 0 -55 14 2 47 51 30 85 46
159 74 65 25 82 35 73 45 -8 8 -142 -41 -197 -72 -33 -18 -47 -21 -57 -13 -10
8 -14 8 -14 0 0 -6 5 -11 12 -11 6 0 2 -10 -9 -22 -11 -13 -26 -34 -33 -47
l-12 -24 56 7 c55 6 56 6 56 -18 0 -14 -4 -27 -9 -30 -10 -7 -2 -107 10 -121
15 -15 10 -47 -15 -102 -49 -104 -151 -185 -248 -198 l-43 -6 36 14 c107 41
174 147 171 271 -4 148 -106 268 -240 282 -102 11 -184 -29 -244 -118 -37 -54
-36 -25 0 33 66 103 171 160 307 165 43 2 82 0 85 -4 11 -15 70 -40 75 -32 7
11 -38 42 -95 65 -67 27 -230 31 -295 8z m190 -24 c-11 -4 -31 -8 -44 -8 -63
-2 -187 -87 -232 -161 -46 -74 -65 -207 -41 -291 29 -100 139 -199 238 -214
106 -15 223 20 306 94 46 41 108 146 108 183 0 10 5 18 11 18 7 0 9 -22 6 -62
-5 -80 -10 -97 -43 -158 -93 -170 -309 -237 -514 -159 -87 33 -177 118 -216
201 -27 58 -29 72 -29 178 1 106 3 120 29 173 73 148 222 231 391 218 37 -3
45 -6 30 -12z m52 -141 c109 -51 166 -194 128 -324 -13 -47 -27 -69 -69 -110
-125 -122 -303 -86 -388 79 -24 48 -29 160 -9 212 57 144 204 206 338 143z"/>
</g>
</svg>
